<?xml version="1.0" encoding="utf-8"?>
<!-- Generator: Adobe Illustrator 16.0.4, SVG Export Plug-In . SVG Version: 6.00 Build 0)  -->
<!DOCTYPE svg PUBLIC "-//W3C//DTD SVG 1.1//EN" "http://www.w3.org/Graphics/SVG/1.1/DTD/svg11.dtd">
<svg version="1.1" xmlns="http://www.w3.org/2000/svg" xmlns:xlink="http://www.w3.org/1999/xlink" x="0px" y="0px" width="79.2px"
	 height="79.2px" viewBox="0 0 79.2 79.2" enable-background="new 0 0 79.2 79.2" xml:space="preserve">
<g id="Layer_2" display="none">
	
		<rect x="0.636" y="4.4" display="inline" stroke="#000000" stroke-width="2" stroke-miterlimit="10" width="78.256" height="71.747"/>
</g>
<g id="Layer_1">
	<circle fill="none" stroke="#FFFFFF" stroke-width="4" stroke-miterlimit="10" cx="39.599" cy="39.601" r="34.2"/>
	<g>
		<path fill="#FFFFFF" stroke="#FFFFFF" stroke-width="3" stroke-miterlimit="10" d="M35.632,48.338l-0.12-1.561
			c-0.36-3.238,0.72-6.779,3.72-10.378c2.7-3.18,4.2-5.52,4.2-8.22c0-3.06-1.92-5.1-5.7-5.16c-2.16,0-4.56,0.72-6.06,1.86
			l-1.44-3.78c1.98-1.44,5.4-2.4,8.58-2.4c6.899,0,10.02,4.26,10.02,8.819c0,4.08-2.28,7.02-5.16,10.44
			c-2.64,3.119-3.6,5.76-3.42,8.818l0.061,1.561H35.632z M34.312,56.739c0-2.221,1.5-3.781,3.6-3.781c2.101,0,3.54,1.561,3.54,3.781
			c0,2.1-1.38,3.719-3.6,3.719C35.752,60.458,34.312,58.838,34.312,56.739z"/>
	</g>
</g>
</svg>
